# xmcd CD database file
#
# Track frame offsets:
#	150
#	18940
#	40572
#	59580
#
# Disc length: 1079 seconds
#
# Revision: 2
# Processed by: cddbd v1.5.1PL0 Copyright (c) Steve Scherf et al.
# Submitted via: CDex 1.51
#
DISCID=28043504
DTITLE=平原綾香 - 明日
DYEAR=2005
DGENRE=JPop
TTITLE0=明日
TTITLE1=ありがとう
TTITLE2=明日(Vocal-less Track)
TTITLE3=ありがとう(Vocal-less Track)
EXTD=YEAR: 2005
EXTT0=
EXTT1=
EXTT2=
EXTT3=
PLAYORDER=
